# xmcd
#
# Track frame offsets: 
#        150
#        27185
#        53337
#        85227
#        117410
#
# Disc length: 2310 seconds
#
# Revision: 1
# Processed by: cddbd v1.5.2PL0 Copyright (c) Steve Scherf et al.
# Submitted via: ExactAudioCopy v0.95b4
#
DISCID=32090405
DTITLE=Harold Land - Eastward Ho !
DYEAR=1960
DGENRE=Jazz
TTITLE0=So In Love
TTITLE1=Triple Trouble
TTITLE2=Slowly
TTITLE3=On A Little Street In Singapore
TTITLE4=Okay Blues
EXTD=
EXTT0=
EXTT1=
EXTT2=
EXTT3=
EXTT4=
PLAYORDER=
